# xmcd
#
# Track frame offsets: 
#        150
#        9003
#        18782
#        29859
#        42915
#        53124
#        63256
#        74868
#        86096
#        97951
#        107901
#        119131
#
# Disc length: 1717 seconds
#
# Revision: 0
# Processed by: cddbd v1.5.2PL0 Copyright (c) Steve Scherf et al.
# Submitted via: ExactAudioCopy v0.99pb5
#
DISCID=a306b30c
DTITLE=Elvis Presley - For LP Fans Only
DYEAR=1959
DGENRE=A Cappella
TTITLE0=That's All Right
TTITLE1=Lawdy, Miss Clawdy
TTITLE2=Mystery Train
TTITLE3=Playing For Keeps
TTITLE4=Poor Boy
TTITLE5=My Baby Left Me
TTITLE6=I Was the One
TTITLE7=Shake, Rattle And Roll
TTITLE8=I'm Left, You're Right, She's Gone
TTITLE9=You're A Heartbreaker
TTITLE10=I Don't Care If The Sun Don't Shine
TTITLE11=Let Me
EXTD=
EXTT0=
EXTT1=
EXTT2=
EXTT3=
EXTT4=
EXTT5=
EXTT6=
EXTT7=
EXTT8=
EXTT9=
EXTT10=
EXTT11=
PLAYORDER=
